<?xml version="1.0" encoding="iso-8859-1"?>
<!-- Uploaded to: SVG Repo, www.svgrepo.com, Generator: SVG Repo Mixer Tools -->
<!DOCTYPE svg PUBLIC "-//W3C//DTD SVG 1.1//EN" "http://www.w3.org/Graphics/SVG/1.1/DTD/svg11.dtd">
<svg fill="currentColor" version="1.1" id="Capa_1" xmlns="http://www.w3.org/2000/svg" xmlns:xlink="http://www.w3.org/1999/xlink" 
	 width="800px" height="800px" viewBox="0 0 31.364 31.364"
	 xml:space="preserve">
<g>
	<g>
		<path d="M20.117,23.168c-0.055-0.011-0.114-0.02-0.17-0.029c-0.896,1.143-2.407,2.12-4.119,2.12c-1.74,0-3.271-1.011-4.162-2.178
			c-0.246,0.043-0.496,0.085-0.729,0.136c-4.91,0.746-8.4,2.954-8.4,8.147h26.29C28.829,26.061,25.191,23.868,20.117,23.168z"/>
		<path d="M9.354,10.809c-0.275,0.572-0.434,1.214-0.451,1.821c-0.038,1.367-0.137,4.175,1.165,5.588
			c1.131,2.97,3.373,4.998,5.701,5.05h0.02l0.02-0.002c2.535-0.117,5.216-2.771,6.117-6.084c0.068-0.346,0.352-1.832,0.276-2.567
			h0.024c-0.016-0.625-0.068-1.189-0.145-1.721c-0.086-1.095-0.376-2.213-1.014-3.181c-0.442-0.765-0.981-1.342-1.579-1.765
			L18.238,0l-2.566,4.841l-3.973-2.203l-0.007-0.014l-0.003,0.009l-0.007-0.005l0.007,0.015L10.503,7.03L5.239,5.502l4.098,5.248
			L9.354,10.809z M21.012,15.391c-0.043,0.427-0.115,0.984-0.222,1.523c-0.813,2.99-3.245,5.089-5.015,5.186
			c-2.033-0.059-4.097-2.24-4.914-5.201l-0.151-0.547l-0.019,0.006c-0.075-0.433-0.13-0.94-0.158-1.291l-0.017-0.463
			c-0.013-0.324-0.006-0.636,0.011-0.941c0.279-0.932,0.577-1.867,0.918-2.5c0.369,0.419,3.936,0.971,6.764,1.104
			C19.75,12.34,20.576,13.945,21.012,15.391z"/>
	</g>
</g>
</svg>