<?xml version="1.0" encoding="utf-8"?>

<!DOCTYPE svg PUBLIC "-//W3C//DTD SVG 1.1//EN" "http://www.w3.org/Graphics/SVG/1.1/DTD/svg11.dtd">
<!-- Uploaded to: SVG Repo, www.svgrepo.com, Generator: SVG Repo Mixer Tools -->
<svg height="800px" width="800px" version="1.1" id="_x32_" xmlns="http://www.w3.org/2000/svg" xmlns:xlink="http://www.w3.org/1999/xlink" 
	 viewBox="0 0 512 512"  xml:space="preserve">
<style type="text/css">
	.st0{fill: currentColor}
</style>
<g>
	<path class="st0" d="M437.969,410.522c-5.719-8.454-13.023-14.964-20.887-20.028c-11.815-7.585-24.902-12.023-36.811-15.274
		c-7.811-2.114-15.156-3.748-21.195-5.259c2.255-5.886,3.495-11.95,3.504-17.924c0.024-12.672-5.236-25.109-15.868-32.79
		c-7.812-5.666-15.115-8.698-21.314-10.251c2.504-2.983,5.016-6.25,7.45-9.924c2.369,5.104,5.812,10.42,10.798,16.468
		c27.354,33.157,91.468,21.915,95.126-28.118c2.081-28.466-25.492-51.78-52.711-45.024c0.509-3.471,1.07-7.007,1.634-10.551
		c4.349-27.247,9.978-121.312-61.83-154.542V30.612c0-5.706-2.89-11.031-7.702-14.12c-2.747-1.78-5.918-2.682-9.1-2.682
		c-2.357,0-4.727,0.495-6.934,1.503l-16.664,7.551L267.99,5.039C264.836,1.82,260.511,0,256,0c-4.511,0-8.836,1.82-11.998,5.039
		l-17.476,17.826l-16.66-7.551c-2.219-1.008-4.589-1.503-6.938-1.503c-3.178,0-6.352,0.902-9.108,2.69
		c-4.796,3.08-7.694,8.397-7.694,14.111v46.943c-69.699,33.368-65.179,125.742-61.205,152.73c0.52,3.552,1.036,7.096,1.508,10.567
		c-27.125-7.064-54.982,15.916-53.239,44.407c3.065,50.072,67.045,62.07,94.789,29.239c4.954-5.852,8.389-11.03,10.811-15.997
		c2.548,3.886,5.174,7.356,7.812,10.494c-6.206,1.553-13.502,4.585-21.313,10.251c-10.632,7.681-15.9,20.11-15.867,32.79
		c0.007,5.967,1.239,12.031,3.495,17.9c-5.04,1.277-10.905,2.61-17.27,4.243c-15.477,4.016-33.588,9.738-48.374,21.874
		c-7.377,6.072-13.851,13.811-18.386,23.533c-4.541,9.721-7.113,21.33-7.105,34.977c0,3.406,0.155,6.942,0.484,10.616
		c0.24,2.586,1.273,4.626,2.423,6.267c2.215,3.065,5.068,5.276,8.648,7.56c6.264,3.918,14.933,7.746,26.048,11.51
		c33.247,11.201,88.343,21.468,156.607,21.484c55.47,0,102.283-6.804,135.687-15.346c16.714-4.284,30.048-8.975,39.68-13.648
		c4.828-2.358,8.731-4.682,11.844-7.251c1.552-1.284,2.93-2.65,4.105-4.3c1.15-1.65,2.178-3.682,2.426-6.267
		c0.32-3.674,0.484-7.202,0.484-10.608C450.247,436.387,445.613,421.788,437.969,410.522z M396.545,280.268
		c-10.043,2.072-12.746-6.105-12.437-18.46C399.182,264.165,406.604,278.196,396.545,280.268z M115.496,278.61
		c-10.027-2.187-2.439-16.136,12.66-18.314C128.315,272.651,125.523,280.788,115.496,278.61z M196.409,30.612
		c0-2.202,1.13-4.284,2.987-5.47c1.069-0.699,2.292-1.049,3.532-1.049c0.91,0,1.829,0.187,2.699,0.585l23.203,10.518l22.512-22.955
		c1.232-1.252,2.902-1.959,4.658-1.959c1.756,0,3.426,0.708,4.646,1.951l22.52,22.963l23.216-10.527
		c0.858-0.39,1.768-0.577,2.682-0.577c1.24,0,2.463,0.35,3.528,1.04c1.87,1.195,2.991,3.268,2.991,5.479v42.562
		c-3.674-1.284-7.454-2.463-11.486-3.438c-16.843-4.073-46.817-2.406-46.817-2.406s-29.966-2.024-46.846,1.854
		c-4.971,1.138-9.596,2.56-14.026,4.154V30.612z M250.509,496.84c-13.502-0.113-26.438-0.634-38.758-1.488v-75.58l-0.951-1.398
		c-0.138-0.196-10.584-15.574-27.044-31.133c-5.844-5.56-15.107-15.07-18.972-32.799l-0.106,0.017
		c-0.061-0.813-0.175-1.626-0.175-2.423c0.033-8.706,3.447-16.102,9.62-20.565c10.636-7.657,18.838-8.795,23.39-8.828
		c0.175,0,0.288,0.016,0.447,0.016v25.663l35.908,29.613c10.636,8.771,16.635,21.337,16.639,34.514V496.84z M240.844,369.472
		l-31.917-26.321v-32.905h-0.654c-8.108-8.218-18.103-18.614-24.268-34.36c0.577-16.387-1.662-47.585,1.54-75.54
		c5.357-46.862,16.656-56.128,26.829-64.818c16.078-13.729,44.586-4,44.586-4s28.621-9.397,44.529,4.528
		c10.068,8.812,21.622,22.899,25.947,65.135c2.524,24.646,0.435,58.225,0.634,74.45c-6.149,15.884-16.192,26.337-24.337,34.604
		h-0.658v32.905l-31.917,26.321c-6.495,5.34-11.636,11.916-15.164,19.2C252.472,381.389,247.339,374.82,240.844,369.472z
		 M347.321,354.459l-0.106-0.017c-3.865,17.729-13.136,27.24-18.972,32.799c-16.46,15.559-26.902,30.938-27.044,31.133l-0.951,1.398
		v75.621c-12.319,0.853-25.276,1.374-38.774,1.479v-84.424c0.008-13.169,6.019-25.744,16.656-34.514l35.908-29.613v-25.654
		c0.167-0.008,0.268-0.024,0.447-0.024c4.548,0.032,12.742,1.17,23.39,8.828c6.174,4.463,9.587,11.86,9.62,20.565
		C347.496,352.832,347.383,353.646,347.321,354.459z"/>
	<path class="st0" d="M314.787,261.06c-6.243,2.764-14.567,2.764-26.012-8.284c-10.453-10.096-26.723-3.406-32.775-1.39
		c-6.052-2.015-22.321-8.706-32.775,1.39c-11.445,11.047-19.769,11.047-26.012,8.284c4.162,11.055,15.607,21.175,34.336,17.492
		c13.863-2.723,21.443-16.022,24.451-22.76c3.008,6.739,10.588,20.038,24.451,22.76C299.179,282.235,310.625,272.115,314.787,261.06
		z"/>
</g>
</svg>