<?xml version="1.0" encoding="utf-8"?>

<!DOCTYPE svg PUBLIC "-//W3C//DTD SVG 1.1//EN" "http://www.w3.org/Graphics/SVG/1.1/DTD/svg11.dtd">
<!-- Uploaded to: SVG Repo, www.svgrepo.com, Generator: SVG Repo Mixer Tools -->
<svg height="800px" width="800px" version="1.1" id="_x32_" xmlns="http://www.w3.org/2000/svg" xmlns:xlink="http://www.w3.org/1999/xlink" 
	 viewBox="0 0 512 512"  xml:space="preserve">
<style type="text/css">
	.st0{fill:#currentColor;}
</style>
<g>
	<path class="st0" d="M260.737,108.088h0.045h58.307c0,0,23.561-26.061,13.89-50.053c-8.45-20.992-44.024-23.62-70.058-11.1V31.89
		h20.184V17.308h-20.184V0h-13.828v17.308h-20.177V31.89h20.177v15.052c-26.037-12.528-61.611-9.899-70.072,11.092
		c-9.668,23.992,13.896,50.053,13.896,50.053H260.737z M262.921,60.704c8.968-6.588,21.343-10.519,33.174-10.519
		c6.94,0,19.156,1.428,23.002,10.961c1.356,3.366,1.259,6.788,0.283,10.085h-56.458V60.704z M192.921,61.146
		c3.838-9.533,16.045-10.961,22.981-10.961c11.838,0,24.227,3.932,33.191,10.519V71.23h-56.452
		C191.659,67.933,191.562,64.512,192.921,61.146z"/>
	<path class="st0" d="M413.036,425.2c-10.606-14.873-26.713-23.095-41.852-28.442c-7.588-2.676-15.014-4.642-21.55-6.312
		c-1.138-0.297-2.207-0.566-3.287-0.842c3.576-2.669,6.95-5.394,9.94-8.16c7.43-6.933,12.986-13.955,15.828-21.247
		c1.29-3.366,1.936-6.76,1.928-10.05c0.013-5.905-2.073-11.313-5.243-15.728c-4.77-6.65-11.792-11.423-19.339-14.727
		c-6.098-2.649-12.565-4.277-18.804-4.843c1.259-3.304,2.328-6.85,3.211-10.623c1.728-0.738,3.442-1.566,5.098-2.649
		c4.16-2.684,7.76-6.65,10.789-12.038c3.056-5.394,5.743-12.285,8.606-21.66c0.038-0.124,0.045-0.227,0.079-0.352l11.268-7.326
		c9.916-9.057,17.752-21.999,9.45-37.526c14.745-17.26,7.837-45.556-11.424-58.676c-9.474-36.34-30.28-40.976-48.484-42.831h-62.926
		h-0.652h-62.926c-18.208,1.856-39.013,6.491-48.484,42.831c-19.253,13.12-26.168,41.416-11.427,58.676
		c-8.291,15.528-0.458,28.469,9.454,37.526l11.264,7.326c0.038,0.131,0.045,0.227,0.083,0.352
		c3.828,12.486,7.305,20.605,11.828,26.586c2.252,2.959,4.815,5.326,7.57,7.112c1.659,1.083,3.366,1.91,5.094,2.649
		c0.883,3.774,1.956,7.32,3.218,10.623c-8.83,0.793-18.125,3.656-26.12,8.568c-4.656,2.898-8.864,6.478-12.034,10.927
		c-3.166,4.408-5.252,9.823-5.239,15.734c-0.003,3.284,0.642,6.684,1.932,10.044c2.763,7.126,7.964,14.169,14.942,21.102
		c2.914,2.876,6.177,5.726,9.688,8.506c-2.856,0.718-5.836,1.456-9.006,2.311c-14.12,3.822-30.814,9.34-44.404,20.239
		c-6.773,5.457-12.73,12.306-16.918,20.819c-4.197,8.505-6.595,18.618-6.588,30.441c0,2.753,0.128,5.594,0.39,8.527
		c0.193,2.056,1.031,3.732,2.007,5.118c1.876,2.566,4.353,4.47,7.46,6.436c5.435,3.373,12.972,6.657,22.62,9.899
		c28.872,9.644,76.684,18.466,135.926,18.48c48.129,0,88.753-5.856,117.75-13.204c14.507-3.677,26.089-7.719,34.46-11.734
		c4.191-2.035,7.581-4.036,10.268-6.236c1.345-1.104,2.524-2.27,3.518-3.642c0.979-1.387,1.818-3.063,2.007-5.118
		c0.262-2.932,0.39-5.767,0.39-8.506C424.422,447.798,420.097,435.092,413.036,425.2z M180.177,290.629
		c-2.242-1.49-4.215-3.456-6.554-7.533c-1.503-2.649-3.083-6.27-4.745-10.858c4.318-2.428,10.05-6.871,10.05-13.328
		c8.133-7.615,3.238-34.505,3.238-34.505s15.397,2.152,22.768-18.563c14.98-42.072,42.893-28.807,51.068-43.018
		c8.171,14.211,36.081,0.945,51.071,43.018c7.36,20.715,22.768,18.563,22.768,18.563s-4.901,26.89,3.239,34.505
		c0,6.471,5.753,10.92,10.064,13.348c-2.518,6.974-4.839,11.472-7.005,14.272c-1.455,1.904-2.797,3.104-4.315,4.098
		c-1.514,0.98-3.273,1.766-5.56,2.532l-3.639,1.221l-0.714,3.773c-4.135,21.695-16.114,33.995-25.044,43.3l-1.821,1.897v2.635
		c0,9.472,0,14.024,0,19.17c-0.507,0.545-1.476,1.366-2.984,2.18c-3.135,1.752-8.25,3.497-14.497,4.684
		c-6.256,1.207-13.658,1.918-21.578,1.918c-11.982,0.006-22.844-1.656-30.214-4.132c-3.68-1.207-6.467-2.656-7.936-3.836
		c-0.386-0.303-0.666-0.572-0.876-0.793c0-5.16,0-9.706,0-19.191v-2.635l-1.824-1.897c-8.934-9.306-20.912-21.605-25.044-43.3
		l-0.714-3.773l-3.639-1.221C183.453,292.395,181.69,291.608,180.177,290.629z M164.031,371.932
		c-6.098-6.008-10.23-11.962-11.934-16.494c-0.766-1.994-1.062-3.752-1.066-5.36c0.01-2.869,0.931-5.477,2.814-8.147
		c2.794-3.98,7.944-7.76,13.914-10.34c5.95-2.6,12.658-4.029,18.063-4.014c0.579,0,1.118,0.034,1.662,0.069
		c5.343,9.022,11.469,15.81,16.397,20.956c0,9.203,0,13.383,0,19.343h1.246c0.317,1.07,0.769,2.084,1.324,2.973
		c1.921,3.063,4.666,5.118,7.86,6.891c4.808,2.622,10.882,4.539,17.97,5.906c7.07,1.352,15.131,2.11,23.706,2.11
		c13.09-0.007,24.934-1.731,33.994-4.732c4.539-1.531,8.406-3.339,11.534-5.781c1.556-1.228,2.949-2.635,4.028-4.401
		c0.559-0.89,1.004-1.897,1.325-2.967h1.248c0-5.953,0-10.14,0-19.336c4.898-5.118,10.982-11.858,16.307-20.805
		c0.597-0.034,1.107-0.145,1.746-0.145c7.222-0.042,16.714,2.574,23.709,6.954c3.518,2.173,6.401,4.753,8.278,7.395
		c1.88,2.67,2.804,5.277,2.814,8.14c-0.007,1.614-0.3,3.367-1.069,5.367c-1.624,4.346-5.984,10.326-12.51,16.341
		c-9.761,9.078-24.216,18.425-40.703,25.351c-15.69,6.609-33.222,11.01-50.378,11.431h-2.646
		c-23.982,0.013-47.673-8.113-66.258-19.06C178.121,384.114,170.119,377.96,164.031,371.932z M339.877,459.973h-83.876h-83.876
		l-12.73-56.192c2.131-0.58,4.294-1.173,6.329-1.683c4.36-1.09,8.398-2.063,12.082-3.077c5.922,3.678,12.321,7.098,19.132,10.113
		c15.194,6.712,32.342,11.416,50.192,12.369v0.29h6.536c26.917-0.028,53.654-8.912,75.08-20.784
		c1.373-0.759,2.656-1.566,3.977-2.352c5.76,1.724,12.524,3.283,19.849,5.277L339.877,459.973z"/>
	<path class="st0" d="M207.555,417.28c-4.101,0-7.429,3.118-7.429,6.967c0,3.85,3.328,6.954,7.429,6.954
		c4.104,0,7.433-3.104,7.433-6.954C214.988,420.398,211.66,417.28,207.555,417.28z"/>
	<path class="st0" d="M228.364,432.594c-4.104,0-7.433,3.118-7.433,6.967c0,3.849,3.328,6.954,7.433,6.954
		c4.101,0,7.43-3.104,7.43-6.954C235.793,435.712,232.465,432.594,228.364,432.594z"/>
	<path class="st0" d="M256.002,440.672c-4.104,0-7.433,3.118-7.433,6.961c0,3.842,3.328,6.954,7.433,6.954
		c4.101,0,7.429-3.112,7.429-6.954C263.431,443.79,260.103,440.672,256.002,440.672z"/>
	<path class="st0" d="M304.445,417.28c-4.104,0-7.433,3.118-7.433,6.967c0,3.85,3.328,6.954,7.433,6.954
		c4.101,0,7.429-3.104,7.429-6.954C311.874,420.398,308.545,417.28,304.445,417.28z"/>
	<path class="st0" d="M283.636,432.594c-4.101,0-7.429,3.118-7.429,6.967c0,3.849,3.328,6.954,7.429,6.954
		c4.105,0,7.433-3.104,7.433-6.954C291.069,435.712,287.741,432.594,283.636,432.594z"/>
</g>
</svg>